<!-- icon666.com - MILLIONS vector ICONS FREE --><svg viewBox="0 0 500 500" xmlns="http://www.w3.org/2000/svg"><g id="Layer_2" data-name="Layer 2"><g id="_11.Square_Solid_Color" data-name="11.Square_Solid_Color"><g id="_10" data-name="10"><rect fill="#00b2ff" height="500" rx="125" width="500"></rect><g fill="#fff"><path d="m124.377 197.832v-41.787h72.8v191.855h-46.777v-150.068z"></path><path d="m245.4 178.121q17.475-26.021 56.373-26.021t56.373 26.018q17.475 26.019 17.477 71.222 0 45.729-17.477 71.747t-56.373 26.019q-38.9 0-56.373-26.019t-17.477-71.747q0-45.196 17.477-71.219zm80.289 30.355q-5.784-14.322-23.916-14.324t-23.916 14.324q-5.784 14.326-5.782 40.867 0 17.876 2.1 29.566t8.541 18.923q6.436 7.232 19.054 7.227t19.054-7.227q6.437-7.226 8.541-18.923t2.1-29.566q.006-26.543-5.776-40.867z"></path></g></g></g></g></svg>