<!-- icon666.com - MILLIONS vector ICONS FREE --><svg viewBox="0 0 500 500" xmlns="http://www.w3.org/2000/svg"><g id="Layer_2" data-name="Layer 2"><g id="_11.Square_Solid_Color" data-name="11.Square_Solid_Color"><g id="_12" data-name="12"><rect fill="#00b2ff" height="500" rx="125" width="500"></rect><g fill="#fff"><path d="m133.05 197.963v-41.787h72.8v191.853h-46.782v-150.066z"></path><path d="m243.166 305.453q25.753-21.288 40.605-34.954a168.086 168.086 0 0 0 25.1-28.646q10.249-14.981 10.249-29.172 0-10.773-4.993-16.82t-14.98-6.045q-9.991 0-15.637 7.49t-5.651 21.157h-43.366q.524-22.335 9.593-37.32a55.713 55.713 0 0 1 23.914-22.076 75.51 75.51 0 0 1 32.983-7.1q31.272 0 47.175 16.032t15.9 41.787q0 28.125-19.185 52.168t-48.882 46.916h70.959v36.53h-131.931v-33.377q8.931-7.095 8.147-6.57z"></path></g></g></g></g></svg>