<!-- icon666.com - MILLIONS vector ICONS FREE --><svg viewBox="0 0 500 500" xmlns="http://www.w3.org/2000/svg"><g id="Layer_2" data-name="Layer 2"><g id="_11.Square_Solid_Color" data-name="11.Square_Solid_Color"><g id="_13" data-name="13"><rect fill="#00b2ff" height="500" rx="125" width="500"></rect><g fill="#fff"><path d="m131.867 197.306v-41.787h72.8v191.853h-46.782v-150.066z"></path><path d="m255.387 166.294q17.346-15.239 47.043-15.243 19.712 0 33.772 6.833t21.288 18.66a49.912 49.912 0 0 1 7.227 26.544q0 17.346-8.673 28.252t-20.236 14.849v1.051q14.979 5 23.653 16.557t8.672 29.7q0 16.3-7.49 28.779t-21.813 19.577q-14.328 7.1-34.035 7.1-31.538 0-50.328-15.506t-19.842-46.781h43.626q.26 11.568 6.571 18.266t18.4 6.7q10.251 0 15.9-5.913t5.65-15.637q0-12.615-8.015-18.266t-25.624-5.65h-8.411v-36.534h8.411q13.4 0 21.682-4.6t8.278-16.426q0-9.462-5.256-14.717t-14.455-5.257q-9.991 0-14.849 6.045a27.089 27.089 0 0 0 -5.651 14.98h-43.892q1.047-28.118 18.397-43.363z"></path></g></g></g></g></svg>