<!-- icon666.com - MILLIONS vector ICONS FREE --><svg viewBox="0 0 500 500" xmlns="http://www.w3.org/2000/svg"><g id="Layer_2" data-name="Layer 2"><g id="_11.Square_Solid_Color" data-name="11.Square_Solid_Color"><g id="_15" data-name="15"><rect fill="#00b2ff" height="500" rx="125" width="500"></rect><g fill="#fff"><path d="m125.165 195.992v-41.787h72.8v191.853h-46.78v-150.066z"></path><path d="m363.8 193.364h-82v36.268q5.255-5.778 14.717-9.461a56.1 56.1 0 0 1 20.5-3.68q19.711 0 32.72 8.936a52.606 52.606 0 0 1 19.053 23.127 77.665 77.665 0 0 1 6.046 30.75q0 30.749-17.346 48.751t-48.883 18q-21.03 0-36.531-7.227t-23.916-20.105a58.209 58.209 0 0 1 -9.2-29.7h43.89a23.608 23.608 0 0 0 7.621 13.535q6.043 5.389 16.557 5.387 12.35 0 18.4-7.884t6.046-21.025q0-12.874-6.308-19.711t-18.4-6.833q-8.939 0-14.717 4.336a20.2 20.2 0 0 0 -7.622 11.432h-43.363v-114.318h122.736z"></path></g></g></g></g></svg>