<!-- icon666.com - MILLIONS vector ICONS FREE --><svg viewBox="0 0 500 500" xmlns="http://www.w3.org/2000/svg"><g id="Layer_2" data-name="Layer 2"><g id="_11.Square_Solid_Color" data-name="11.Square_Solid_Color"><g id="_16" data-name="16"><rect fill="#00b2ff" height="500" rx="125" width="500"></rect><g fill="#fff"><path d="m127.268 197.306v-41.787h72.8v191.853h-46.782v-150.066z"></path><path d="m318.33 192.707q-5.259-4.86-14.98-4.862-14.981 0-21.551 13.009t-6.833 41.13a39.233 39.233 0 0 1 16.689-14.454 54.657 54.657 0 0 1 24.047-5.257q25.753 0 41.393 16.3t15.637 45.466q0 19.187-7.753 33.64a55.077 55.077 0 0 1 -22.6 22.6q-14.852 8.149-35.086 8.147-40.474 0-56.241-25.361t-15.769-72.93q0-49.93 16.688-74.245t53.482-24.31q19.712 0 33.246 7.753a52.7 52.7 0 0 1 20.501 20.367 68.973 68.973 0 0 1 8.278 27.6h-41.789q-2.107-9.727-7.359-14.593zm-32.194 71.748q-7.491 6.7-7.49 19.054 0 12.613 6.964 19.711t19.842 7.095q11.562 0 18.266-6.964t6.7-19.054q0-12.351-6.57-19.448t-18.922-7.1q-11.301.004-18.79 6.706z"></path></g></g></g></g></svg>