<!-- icon666.com - MILLIONS vector ICONS FREE --><svg viewBox="0 0 500 500" xmlns="http://www.w3.org/2000/svg"><g id="Layer_2" data-name="Layer 2"><g id="_11.Square_Solid_Color" data-name="11.Square_Solid_Color"><g id="_18" data-name="18"><rect fill="#00b2ff" height="500" rx="125" width="500"></rect><g fill="#fff"><path d="m126.085 195.992v-41.787h72.8v191.853h-46.785v-150.066z"></path><path d="m236.464 201.774a47.624 47.624 0 0 1 7.359-25.887q7.355-11.691 22.339-18.66t36.794-6.964q21.812 0 36.662 6.964t22.208 18.66a47.658 47.658 0 0 1 7.359 25.887q0 14.192-6.7 24.7a47.528 47.528 0 0 1 -18 16.558q14.191 6.837 21.814 18.79t7.621 27.99q0 18.665-9.461 32.2a59.817 59.817 0 0 1 -25.625 20.63 94.226 94.226 0 0 1 -71.747 0 59.814 59.814 0 0 1 -25.624-20.63q-9.463-13.535-9.463-32.196 0-16.291 7.622-28.252a50.257 50.257 0 0 1 21.551-18.528q-24.71-13.136-24.709-41.262zm46.518 67.411q-7.625 6.7-7.621 18.528 0 11.038 7.49 18.135t20.105 7.095q12.615 0 19.842-7.095t7.228-18.135q0-11.561-7.491-18.4t-19.579-6.834q-12.356.004-19.974 6.706zm36.4-77.266q-6.179-5.913-16.426-5.914t-16.426 6.045q-6.177 6.048-6.176 16.82 0 10.25 6.308 16.163t16.294 5.913q9.984 0 16.294-6.045t6.308-16.294q0-10.773-6.176-16.688z"></path></g></g></g></g></svg>