<!-- icon666.com - MILLIONS vector ICONS FREE --><svg viewBox="0 0 500 500" xmlns="http://www.w3.org/2000/svg"><g id="Layer_2" data-name="Layer 2"><g id="_11.Square_Solid_Color" data-name="11.Square_Solid_Color"><g id="_19" data-name="19"><rect fill="#00b2ff" height="500" rx="125" width="500"></rect><g fill="#fff"><path d="m129.37 197.7v-41.787h72.8v191.853h-46.78v-150.066z"></path><path d="m305.453 312.287q13.926 0 19.71-12.353t5.782-40.21a37.724 37.724 0 0 1 -15.769 12.615 54.084 54.084 0 0 1 -22.339 4.468q-16.821 0-29.96-6.964a49.616 49.616 0 0 1 -20.631-20.763q-7.49-13.8-7.49-33.508 0-19.446 8.016-33.9a55.1 55.1 0 0 1 22.865-22.339q14.844-7.884 35.085-7.884 38.892 0 54.4 24.178t15.506 71.222q0 34.168-6.176 56.373t-20.763 33.772q-14.584 11.568-39.815 11.563-19.977 0-34.035-7.884a55.888 55.888 0 0 1 -21.55-20.762 64.262 64.262 0 0 1 -8.541-28.384h41.524q3.944 20.762 24.181 20.76zm15.247-77.661q6.567-6.7 6.571-18.266 0-12.615-6.833-19.448t-18.4-6.833q-11.568 0-18.265 6.964t-6.7 19.054q0 11.3 6.7 18.266t19.316 6.964q11.037 0 17.611-6.701z"></path></g></g></g></g></svg>