<!-- icon666.com - MILLIONS vector ICONS FREE --><svg viewBox="0 0 500 500" xmlns="http://www.w3.org/2000/svg"><g id="Layer_2" data-name="Layer 2"><g id="_11.Square_Solid_Color" data-name="11.Square_Solid_Color"><g id="_2" data-name="2"><rect fill="#00b2ff" height="500" rx="125" width="500"></rect><path d="m192.444 306.767q25.754-21.288 40.6-34.954a168.05 168.05 0 0 0 25.1-28.646q10.256-14.98 10.256-29.167 0-10.773-4.994-16.82t-14.98-6.045q-9.992 0-15.637 7.49t-5.651 21.157h-43.367q.524-22.335 9.593-37.32a55.707 55.707 0 0 1 23.916-22.076 75.51 75.51 0 0 1 32.983-7.1q31.272 0 47.174 16.032t15.9 41.787q0 28.125-19.185 52.168t-48.883 46.912h70.96v36.531h-131.929v-33.378q8.928-7.096 8.144-6.571z" fill="#fff"></path></g></g></g></svg>