<!-- icon666.com - MILLIONS vector ICONS FREE --><svg viewBox="0 0 500 500" xmlns="http://www.w3.org/2000/svg"><g id="Layer_2" data-name="Layer 2"><g id="_11.Square_Solid_Color" data-name="11.Square_Solid_Color"><g id="_3" data-name="3"><rect fill="#00b2ff" height="500" rx="125" width="500"></rect><path d="m204.008 166.294q17.346-15.239 47.043-15.243 19.712 0 33.772 6.833t21.287 18.66a49.9 49.9 0 0 1 7.228 26.544q0 17.346-8.673 28.252t-20.237 14.849v1.051q14.981 5 23.654 16.558t8.672 29.7q0 16.3-7.49 28.778t-21.813 19.58q-14.328 7.1-34.034 7.1-31.537 0-50.329-15.506t-19.842-46.781h43.627q.258 11.568 6.57 18.266t18.4 6.7q10.251 0 15.9-5.913t5.65-15.637q0-12.615-8.015-18.266t-25.625-5.65h-8.409v-36.537h8.409q13.4 0 21.682-4.6t8.279-16.426q0-9.46-5.256-14.717t-14.458-5.256q-9.99 0-14.849 6.045a27.08 27.08 0 0 0 -5.65 14.98h-43.89q1.047-28.117 18.397-43.364z" fill="#fff"></path></g></g></g></svg>