<!-- icon666.com - MILLIONS vector ICONS FREE --><svg viewBox="0 0 500 500" xmlns="http://www.w3.org/2000/svg"><g id="Layer_2" data-name="Layer 2"><g id="_11.Square_Solid_Color" data-name="11.Square_Solid_Color"><g id="_5" data-name="5"><rect fill="#00b2ff" height="500" rx="125" width="500"></rect><path d="m306.9 193.364h-82v36.268q5.254-5.778 14.717-9.461a56.115 56.115 0 0 1 20.5-3.679q19.712 0 32.72 8.935a52.617 52.617 0 0 1 19.053 23.127 77.665 77.665 0 0 1 6.046 30.75q0 30.749-17.346 48.751t-48.883 18q-21.029 0-36.531-7.228t-23.916-20.1a58.2 58.2 0 0 1 -9.2-29.7h43.89a23.616 23.616 0 0 0 7.621 13.536q6.043 5.389 16.557 5.387 12.349 0 18.4-7.884t6.046-21.025q0-12.874-6.308-19.711t-18.4-6.833q-8.939 0-14.717 4.337a20.2 20.2 0 0 0 -7.622 11.431h-43.361v-114.323h122.734z" fill="#fff"></path></g></g></g></svg>