<!-- icon666.com - MILLIONS vector ICONS FREE --><svg viewBox="0 0 500 500" xmlns="http://www.w3.org/2000/svg"><g id="Layer_2" data-name="Layer 2"><g id="_11.Square_Solid_Color" data-name="11.Square_Solid_Color"><g id="_6" data-name="6"><rect fill="#00b2ff" height="500" rx="125" width="500"></rect><path d="m264.323 192.707q-5.259-4.86-14.979-4.862-14.982 0-21.551 13.009t-6.833 41.13a39.231 39.231 0 0 1 16.688-14.454 54.66 54.66 0 0 1 24.047-5.257q25.753 0 41.393 16.3t15.637 45.466q0 19.187-7.753 33.64a55.083 55.083 0 0 1 -22.6 22.6q-14.851 8.149-35.085 8.147-40.476 0-56.242-25.361t-15.769-72.93q0-49.93 16.689-74.245t53.482-24.31q19.711 0 33.245 7.753a52.689 52.689 0 0 1 20.5 20.368 68.957 68.957 0 0 1 8.278 27.6h-41.787q-2.109-9.728-7.36-14.594zm-32.194 71.748q-7.489 6.7-7.49 19.054 0 12.613 6.965 19.711t19.842 7.095q11.562 0 18.266-6.964t6.7-19.054q0-12.351-6.57-19.448t-18.923-7.1q-11.301.004-18.79 6.706z" fill="#fff"></path></g></g></g></svg>