<!-- icon666.com - MILLIONS vector ICONS FREE --><svg viewBox="0 0 500 500" xmlns="http://www.w3.org/2000/svg"><g id="Layer_2" data-name="Layer 2"><g id="_11.Square_Solid_Color" data-name="11.Square_Solid_Color"><g id="_8" data-name="8"><rect fill="#00b2ff" height="500" rx="125" width="500"></rect><path d="m183.509 201.774a47.623 47.623 0 0 1 7.358-25.887q7.356-11.691 22.339-18.66t36.794-6.964q21.81 0 36.663 6.964t22.206 18.66a47.65 47.65 0 0 1 7.36 25.887q0 14.192-6.7 24.7a47.507 47.507 0 0 1 -18 16.557q14.192 6.838 21.813 18.791t7.622 27.99q0 18.665-9.462 32.2a59.812 59.812 0 0 1 -25.624 20.631 94.239 94.239 0 0 1 -71.747 0 59.823 59.823 0 0 1 -25.631-20.632q-9.461-13.533-9.461-32.2 0-16.291 7.621-28.252a50.266 50.266 0 0 1 21.551-18.529q-24.704-13.13-24.702-41.256zm46.517 67.411q-7.625 6.7-7.621 18.528 0 11.04 7.49 18.135t20.1 7.1q12.615 0 19.842-7.1t7.228-18.135q0-11.561-7.49-18.4t-19.575-6.83q-12.355 0-19.974 6.702zm36.4-77.266q-6.178-5.919-16.426-5.914t-16.426 6.045q-6.174 6.05-6.174 16.82 0 10.25 6.308 16.163t16.292 5.913q9.984 0 16.3-6.045t6.307-16.294q-.007-10.773-6.181-16.688z" fill="#fff"></path></g></g></g></svg>