<!-- icon666.com - MILLIONS vector ICONS FREE --><svg viewBox="0 0 500 500" xmlns="http://www.w3.org/2000/svg"><g id="Layer_2" data-name="Layer 2"><g id="_11.Square_Solid_Color" data-name="11.Square_Solid_Color"><g id="_9" data-name="9"><rect fill="#00b2ff" height="500" rx="125" width="500"></rect><path d="m252.76 312.287q13.926 0 19.711-12.353t5.781-40.21a37.73 37.73 0 0 1 -15.769 12.615 54.086 54.086 0 0 1 -22.338 4.468q-16.823 0-29.961-6.964a49.61 49.61 0 0 1 -20.631-20.763q-7.489-13.8-7.49-33.508 0-19.446 8.016-33.9a55.1 55.1 0 0 1 22.864-22.339q14.845-7.884 35.085-7.884 38.893 0 54.4 24.178t15.506 71.222q0 34.168-6.177 56.373t-20.757 33.769q-14.586 11.568-39.817 11.563-19.975 0-34.033-7.884a55.884 55.884 0 0 1 -21.55-20.762 64.249 64.249 0 0 1 -8.541-28.384h41.524q3.94 20.765 24.177 20.763zm15.24-77.661q6.565-6.7 6.57-18.266 0-12.615-6.834-19.448t-18.4-6.833q-11.567 0-18.264 6.964t-6.7 19.054q0 11.3 6.7 18.266t19.316 6.964q11.045 0 17.612-6.701z" fill="#fff"></path></g></g></g></svg>