<!-- icon666.com - MILLIONS vector ICONS FREE --><svg viewBox="0 -31 512 512" xmlns="http://www.w3.org/2000/svg"><path d="m482 30v305h-150c-2.609375 0-5.078125 1-6.949219 2.808594-29.054687 28.117187-27.332031 27.191406-30.121093 27.191406h-77.570313c-2.921875 0-1.535156.605469-28.167969-26.949219-1.871094-1.941406-4.492187-3.050781-7.191406-3.050781h-152v-305c0-16.539062 13.460938-30 30-30h392c16.539062 0 30 13.460938 30 30zm0 0" fill="#3e5959"></path><path d="m482 30v305h-150c-2.609375 0-5.078125 1-6.949219 2.808594-29.050781 28.121094-27.332031 27.191406-30.121093 27.191406h-38.929688v-365h196c16.539062 0 30 13.460938 30 30zm0 0" fill="#293939"></path><path d="m452 30v305h-120c-2.609375 0-5.078125 1-6.949219 2.808594-29.054687 28.117187-27.332031 27.191406-30.121093 27.191406h-77.570313c-2.921875 0-1.535156.605469-28.167969-26.949219-1.871094-1.941406-4.492187-3.050781-7.191406-3.050781h-122v-305zm0 0" fill="#30d9f6"></path><path d="m452 30v305h-120c-2.609375 0-5.078125 1-6.949219 2.808594-29.050781 28.121094-27.332031 27.191406-30.121093 27.191406h-38.929688v-335zm0 0" fill="#19c0ef"></path><path d="m497 330h-165c-3.894531 0-7.632812 1.515625-10.429688 4.222656l-26.640624 25.777344h-77.566407l-24.578125-25.425781c-2.828125-2.921875-6.71875-4.574219-10.785156-4.574219h-167c-8.285156 0-15 6.714844-15 15v45c0 33.085938 26.914062 60 60 60h392c33.085938 0 60-26.914062 60-60v-45c0-8.285156-6.714844-15-15-15zm0 0" fill="#547983"></path><path d="m512 345v45c0 33.078125-26.921875 60-60 60h-196v-90h38.929688l26.640624-25.78125c2.800782-2.707031 6.539063-4.21875 10.429688-4.21875h165c8.28125 0 15 6.71875 15 15zm0 0" fill="#3e5959"></path><path d="m407 60h-302c-8.285156 0-15 6.714844-15 15v210c0 8.285156 6.714844 15 15 15h302c8.285156 0 15-6.714844 15-15v-210c0-8.285156-6.714844-15-15-15zm0 0" fill="#ee3616"></path><path d="m422 75v210c0 8.28125-6.71875 15-15 15h-151v-240h151c8.28125 0 15 6.71875 15 15zm0 0" fill="#cb0010"></path><path d="m322.707031 166.582031-90-45c-9.949219-4.976562-21.707031 2.269531-21.707031 13.417969v90c0 11.140625 11.757812 18.390625 21.707031 13.417969l90-45c11.035157-5.519531 11.042969-21.3125 0-26.835938zm0 0" fill="#fed941"></path><path d="m322.710938 193.421875-66.710938 33.359375v-93.550781l66.710938 33.347656c11.039062 5.523437 11.027343 21.320313 0 26.84375zm0 0" fill="#fcbe29"></path></svg>