<!-- icon666.com - MILLIONS vector ICONS FREE --><svg viewBox="-91 0 512 512" xmlns="http://www.w3.org/2000/svg"><path d="m285 0h-240c-24.8125 0-45 20.1875-45 45v422c0 24.8125 20.1875 45 45 45h240c24.707031 0 44.828125-20.019531 45-44.6875 0-.058594 0-.121094 0-.179688v-422.132812c0-24.8125-20.1875-45-45-45zm0 0" fill="#3e5959"></path><path d="m330 45v422.308594c-.171875 24.671875-20.289062 44.691406-45 44.691406h-120v-512h120c24.808594 0 45 20.191406 45 45zm0 0" fill="#293939"></path><path d="m300 467c0 8.269531-6.730469 15-15 15h-240c-8.269531 0-15-6.730469-15-15v-422c0-8.269531 6.730469-15 15-15h240c8.269531 0 15 6.730469 15 15zm0 0" fill="#19c0ef"></path><path d="m300 45v422c0 8.269531-6.730469 15-15 15h-120v-452h120c8.269531 0 15 6.730469 15 15zm0 0" fill="#159be1"></path><path d="m195 421h-60c-8.285156 0-15 6.714844-15 15s6.714844 15 15 15h60c8.285156 0 15-6.714844 15-15s-6.714844-15-15-15zm0 0" fill="#3e5959"></path><path d="m210 436c0 8.28125-6.71875 15-15 15h-30v-30h30c8.28125 0 15 6.71875 15 15zm0 0" fill="#293939"></path><path d="m165 25 4 5v55.054688l-4 4.945312h-52.21875c-11.453125 0-21.410156-7.75-24.230469-18.839844l-11.742187-46.160156zm0 0" fill="#3e5959"></path><path d="m253.191406 25-1.269531 5-10.472656 41.160156c-2.820313 11.089844-12.777344 18.839844-24.230469 18.839844h-52.21875v-65zm0 0" fill="#293939"></path></svg>